<svg xmlns="http://www.w3.org/2000/svg" viewBox="0 0 640 640"><g id="圖層_2" data-name="圖層 2"><g id="圖層_1-2" data-name="圖層 1"><path d="M204.93 319.85c3.35 3.1 1.42 5.15-1.11 7.43-20.7 18.6-39.5 39-55.27 61.93-11.89 17.32-21.76 35.61-25.42 56.68-4.16 24 2.78 44.4 20.7 60.49 14.89 13.37 9.7 13.53 26.43 1 22.51-16.83 36.67-40.19 45.93-66.08 12.16-34 22.93-68.52 33.88-102.95q35.5-111.54 70.58-223.21c4.08-12.93-.24-19.68-13.83-21.6-13.19-1.87-24.92 2.17-35.8 9.19-3.62 2.33-7.67 4.62-10.16 8-5.33 7.14-12.22 5.72-20.25 4 7-7.35 13.58-15.08 21-22 16.27-15.19 34.53-27 56.74-31.79 24-5.14 45.56.87 65.61 14.2 3.07 2 2 4 1.27 6.42Q371.09 126.9 357 172.24q-44.83 144.22-89.6 288.46a13.33 13.33 0 0 1-6.71 8.38c-29.59 16.77-59.06 33.75-88.57 50.68-1.69 1-3.33 2-5.87 3.58 4.93 2.2 9 4.3 13.27 5.78a7.55 7.55 0 0 0 5.48-.72q46.81-26.34 93.43-53c1.85-1.06 3.29-3.65 4-5.82Q327.94 323 373.28 176.4c10.05-32.46 20.19-64.9 30.12-97.4a10.93 10.93 0 0 1 6.12-7.42c29.21-14.4 58.32-29 87.48-43.51 11.46-5.69 25.1-3.5 31.46 6.75 15.44 24.92 30.75 50.23 38.88 78.58 12.36 43.07-3.42 82.12-42.32 107.93-9.55 6.33-20 11.34-30.35 17.15 6.6 2.38 13.35 4.91 20.16 7.26 28.64 9.9 42.47 32.77 36.15 62.44-6 28.13-13.4 56-20.19 83.91-3.3 13.64-6.79 27.23-9.79 40.91-.92 4.21-2.86 6.18-6.84 7.79C444 469.24 388 514.4 350.35 580.82c-3.26 5.75-7 9.14-13.31 11.06-45 13.66-90.56 23.5-137.88 23.11-23.77-.19-47-3.23-69.11-12.65-34.23-14.6-53.24-41-59.56-77.15-6.67-38.19 4.18-72.43 24.74-104 27.67-42.51 65.56-74.28 108.27-100.76a7.91 7.91 0 0 1 1.43-.58zM447.27 69c-.59 1.74-1.2 3.4-1.73 5.09q-59.87 193.2-119.66 386.43a13.14 13.14 0 0 1-6.73 8.33q-56.67 31.38-113.19 63c-1.56.87-3.05 1.88-5.41 3.34 25.68 4.49 51.22 3.15 80.48-4.26 54.76-13.87 104.13-39.37 150.83-70.48 1.95-1.3 3.43-4.06 4.08-6.43Q453.64 389.58 471 325c5-18.49-3-33.45-21.17-39.45-11.78-3.89-23.63-7.54-35.44-11.33-8.48-2.72-17-5.47-25.5-8.24.41-.91.47-1.34.71-1.51 18.31-13.71 36.6-27.44 55-41 1.27-.93 3.77-1 5.4-.5 6.52 2 13 4.19 19.32 6.83 4 1.67 6.46.68 9.42-2.19 22.36-21.65 27.89-54.89 13.75-85.89-9.26-20.29-18.9-40.4-28.34-60.61-3.26-7.11-8.8-11.05-16.88-12.11z" fill="#f8b500"/><path fill="none" d="M0 0h640v640H0z"/></g></g></svg>