<svg height="640" viewBox="0 0 640 640" width="640" xmlns="http://www.w3.org/2000/svg"><g fill="#c8102e"><path d="m50.89 206.07c-.08.11-.23.3-.42.58.13-.2.27-.39.42-.58z"/><path d="m602.82 187.44c-.28-.64-.6-1.25-.93-1.85-.06-.13-.1-.26-.16-.39-.28-.63-.6-1.24-.93-1.84-.06-.13-.1-.27-.16-.4-.29-.63-.6-1.24-.93-1.84-.06-.13-.11-.27-.16-.4-.29-.63-.6-1.24-.93-1.84-.06-.13-.11-.26-.16-.4-.29-.63-.6-1.24-.94-1.84 0-.13-.1-.26-.16-.39-.28-.63-.59-1.24-.93-1.84 0-.14-.1-.27-.16-.4-.28-.63-.6-1.25-.93-1.84-.06-.14-.1-.27-.16-.4-.28-.63-.6-1.24-.93-1.84-.06-.13-.1-.27-.16-.4-.29-.63-.6-1.24-.93-1.84-.06-.13-.1-.27-.16-.4-.29-.63-.6-1.24-.93-1.84-.06-.13-.1-.26-.16-.4-.29-.63-.6-1.24-.94-1.84-.05-.13-.1-.26-.16-.39a24.75 24.75 0 0 0 -22.58-14.61h-81.36a75.86 75.86 0 0 0 -56.71 25.5l-29.24 33c-.26-.56-.54-1.1-.82-1.65-.35-.75-.71-1.49-1.09-2.22s-.71-1.51-1.1-2.26-.7-1.48-1.07-2.21-.73-1.51-1.11-2.26-.71-1.49-1.08-2.23-.72-1.5-1.1-2.25-.71-1.49-1.09-2.22-.71-1.5-1.09-2.24-.71-1.5-1.09-2.25a63.52 63.52 0 0 0 -7.59-12.42 62.65 62.65 0 0 0 -49.69-24.29h-23.4a89 89 0 0 0 -74.29 40.36c-.33-.71-.67-1.42-1-2.12s-.7-1.5-1.08-2.23-.71-1.51-1.1-2.24-.7-1.5-1.09-2.24-.71-1.5-1.09-2.24a50.55 50.55 0 0 0 -6.06-9.95 50 50 0 0 0 -39.63-19.34h-79.5a63.09 63.09 0 0 0 -55 32.33c-8 14.29-10.13 18.05-10.7 19a24.76 24.76 0 0 0 -.88 25.4c.33.76.69 1.5 1.09 2.23a24.43 24.43 0 0 0 1.1 2.24 24.07 24.07 0 0 0 1.08 2.23 24.6 24.6 0 0 0 1.1 2.25 24.16 24.16 0 0 0 1.09 2.23 24.33 24.33 0 0 0 1.09 2.24c.33.76.69 1.51 1.09 2.23a23.39 23.39 0 0 0 1.1 2.25 24.07 24.07 0 0 0 1.08 2.23 23.39 23.39 0 0 0 1.1 2.25 24.69 24.69 0 0 0 30.55 13.78l-43.91 175.3a24.76 24.76 0 0 0 2.36 18 23 23 0 0 0 1.09 2.23 23.31 23.31 0 0 0 1.09 2.25c.33.76.69 1.5 1.09 2.23s.69 1.51 1.09 2.24.69 1.51 1.09 2.24a24.43 24.43 0 0 0 1.1 2.24 21.86 21.86 0 0 0 1.09 2.23 24.51 24.51 0 0 0 1.09 2.25c.33.75.69 1.5 1.09 2.23s.69 1.51 1.09 2.24a25.07 25.07 0 0 0 3.24 5.5 24.75 24.75 0 0 0 19.52 9.52h60.72a76.11 76.11 0 0 0 65.19-37.12l3.32-5.68a24.5 24.5 0 0 0 2.19 5.34 23.31 23.31 0 0 0 1.09 2.25c.33.76.69 1.5 1.09 2.23s.69 1.51 1.09 2.24.69 1.51 1.09 2.24a692 692 0 0 1 2.19 4.48 24.16 24.16 0 0 0 1.09 2.23c.33.77.69 1.51 1.09 2.25s.69 1.5 1.09 2.23a59.55 59.55 0 0 0 4.33 7.74 24.75 24.75 0 0 0 19.52 9.52h75.62a88.62 88.62 0 0 0 66.28-29.75l220-248a24.74 24.74 0 0 0 4.06-26.56zm-26.17-7-220 248a75.1 75.1 0 0 1 -56.14 25.24h-75.63a11.25 11.25 0 0 1 -10.92-14l36.18-144.68-76.08 128.16a62.58 62.58 0 0 1 -53.57 30.5h-60.73a11.25 11.25 0 0 1 -10.92-14l55.44-221.76h-27.28a15.16 15.16 0 0 0 -9.87 3.66 11.26 11.26 0 0 1 -16.66-14.83c.47-.78 2.49-4.27 11-19.61a49.57 49.57 0 0 1 43.26-25.4h79.5a36.77 36.77 0 0 1 35.68 45.69l-14.44 57.77 39.59-66.71a75.39 75.39 0 0 1 64.55-36.75h23.39a49.53 49.53 0 0 1 48.06 61.55l-9.06 36.39 68.31-77a62.3 62.3 0 0 1 46.6-20.95h81.36a11.25 11.25 0 0 1 8.42 18.72z"/><path d="m448.68 190.14-91.87 103.55a2.55 2.55 0 0 1 -4.38-2.31l17.71-70.84a38.28 38.28 0 0 0 -37.14-47.54h-23.4a63.78 63.78 0 0 0 -54.87 31.24l-69.94 117.83a2.55 2.55 0 0 1 -4.67-1.92l28.88-115.47a25.52 25.52 0 0 0 -24.78-31.68h-79.5a38.29 38.29 0 0 0 -33.43 19.6c-5.5 9.86-11.1 19.85-11.53 20.41a26.45 26.45 0 0 1 17.24-6.36h31.94a7.66 7.66 0 0 1 7.43 9.51l-56.61 226.25h60.73a51 51 0 0 0 43.89-25l106.43-179.34a2.55 2.55 0 0 1 4.67 1.92l-50.6 202.42h75.63a63.81 63.81 0 0 0 47.73-21.41l220-248h-81.37a51.06 51.06 0 0 0 -38.19 17.14z"/></g></svg>