<svg xmlns="http://www.w3.org/2000/svg" viewBox="0 0 640 640"><g id="圖層_2" data-name="圖層 2"><g id="圖層_1-2" data-name="圖層 1"><path d="M364 495c-4.6 3.49-9.09 7.14-13.82 10.45-27.77 19.42-58.33 30.2-92.5 27.62-32.16-2.42-66.57-16.13-81.71-63.74-10-31.32-12.9-63.22-10.28-95.79a156.51 156.51 0 0 1 1.93-16.78c.8-4.18-.36-5.53-4.52-6a89.32 89.32 0 0 1-36.15-11.66c-26.38-15.49-39.79-45.4-34.28-75.71 5.41-29.87 18.6-56.18 36.33-80.39 23.85-32.58 51.15-61.48 86.9-81.4 30.45-17 62.68-26.94 97.87-25.31 7.09.33 14.11 2 21.2 2.47 2.67.19 6-.33 8.1-1.83 29.5-21.3 60.63-39.1 96-49.25 21.61-6.21 39.5-1.47 55.2 13.86 21.33 20.83 34.41 45.82 36.63 75.72a50.22 50.22 0 0 1-3.37 21.32c-13 33.19-32.86 62.08-57.52 87.67-48.36 50.17-107 83.34-173.2 103.59-18 5.52-36.37 10.11-54.6 15-2.91.78-4.87 1.76-6 4.95-11 32.25-18.07 65.14-17 99.45.44 13.58 3.73 26.2 12.09 37.2 7.54 9.91 17.67 14.64 30 15.29 19.43 1 37-5 53.52-14.43 33.1-18.89 59.49-45.05 79.7-77.15 4.6-7.31 6-16.73 8.37-25.3.62-2.19-.43-4.85-.79-8.05 10.91-6.79 24-9.23 36.48-13l-.1-1.76c-10.31 0-20.64-.39-30.92.08-22.11 1-43.89 4.12-64.82 11.73-3.42 1.24-6.73 2.82-10.15 4a13.27 13.27 0 0 1-3.63.26c.15-1.23 0-2.61.48-3.66 6.6-13.7 16.86-24.14 29.46-32.36 18.36-12 39-16.93 60.4-19.85 28.24-3.84 56.5-7.82 83-19.35 15.58-6.79 28.78-17 41.15-28.48 1.32-1.22 3.22-1.81 4.84-2.69 0 2 .58 4.14 0 6-10.84 35.72-33.54 61.21-67.22 77a11.89 11.89 0 0 0-6.77 7.2c-19.14 50.69-37.16 101.86-58 151.83-21.71 52-60.4 86.38-115.75 100.65a10.52 10.52 0 0 1-3.39.66 25.3 25.3 0 0 1-4.37-1.16c.67-1.2 1.06-2.77 2.05-3.56 34.93-27.55 54.81-64.59 67.33-106.31.85-2.82 1.76-5.62 2.63-8.43zM255.44 302.25l1.35 1.54c7.1-2.63 14.32-5 21.28-7.92 65.41-27.87 121.38-68.54 167.08-123.16 12.16-14.53 24.11-29.24 32-46.62a73.58 73.58 0 0 0 5-17c1.11-6-1.3-8.37-7.27-8.41A70 70 0 0 0 464 101c-22.18 3.35-42.13 12.5-61.17 23.93-2.12 1.27-2.56 2.51-2.35 5.14.75 9.36 1.72 18.83 1 28.14A49.14 49.14 0 0 1 384 192.86c-1.63 1.39-4 1.92-7.29 3.43 4-18.64 7.12-35.65.74-54-53.26 44.71-91.29 99.56-122.01 159.96zm51.72-194.67c-3 .23-4.78.24-6.49.51-22.27 3.47-41.56 13.53-58.77 27.56-35 28.58-62.2 63.88-85.28 102.44-8.11 13.55-14.71 27.84-17.56 43.6-3.34 18.47 4.89 31.3 23.06 35.65 2.89.69 5.9.92 8.8 1.58 3.35.77 5-.15 6-3.72 20.33-72.29 59.63-133.41 110.8-187.49 6.12-6.45 12.34-12.78 19.43-20.13z" fill="#004f99"/><path fill="none" d="M0 0h640v640H0z"/></g></g></svg>