<?xml version="1.0" encoding="UTF-8"?>
<svg id="_圖層_1" data-name=" 圖層 1" xmlns="http://www.w3.org/2000/svg" viewBox="0 0 640 640">
  <defs>
    <style>
      .cls-1 {
        fill: #004738;
      }

      .cls-2, .cls-3 {
        fill: #00271b;
      }

      .cls-4 {
        fill: #fff;
      }

      .cls-5 {
        fill: #d8ad35;
      }

      .cls-3 {
        stroke: #00271b;
        stroke-miterlimit: 10;
      }
    </style>
  </defs>
  <path class="cls-3" d="m542.59,109.17c.51-1.87.93-3.75,1.27-5.62,2.35-12.95.86-25.84-4.42-38.32-.09-.22-.19-.44-.3-.65l-.42-.83c-12.18-25.86-30.61-34.68-40.51-37.63-.25-.08-.37-.11-.62-.17-.26-.07-.55-.13-.82-.2-7.36-3-18.86-6.45-35.75-8.44,0,0,24.95,26.32,25.47,40.99,0,.01,0,.02,0,.03l.05.23c.03.19.05.37.06.54l.03.34c-.08,4.1-4.76,12.44-17.63,23.61-29.75,23.4-81.27,55.11-158.13,73.81-27.71,4.74-56.27,11.96-85.17,21.5l8.01-7.29s-36.2-6.07-73.07,10.57c-2.08.94-3.84,1.82-5.4,2.67-6.37,3.13-12.96,6.98-19.61,11.71-.15.11-.31.22-.45.34-14.38,11.36-25.82,26.1-34.01,43.81l-.16.34c-.08.17-.16.35-.23.53-5.77,14.33-6.4,27.3-6.23,36.24-.06.61-.08,1.24-.04,1.86l.18,2.89s.09,1.51.36,3.72c-.9,8.22,8.48,26.3,8.48,26.3,17.38,24.04,38.67,19.34,38.67,19.34-9.38-9.02-7.67-24.34-6.63-30.05.14-.6.3-1.2.47-1.8.52-1.07,1.04-2,1.57-2.82.34-.53.71-1.02,1.05-1.46l.33-.43c.32-.41.67-.8.9-1.07.24-.26.47-.52.82-.88.24-.25.49-.5.62-.63,9.9-9.35,29.56-14,55.37-13.09,1.1.03,2.18.08,3.34.15,9.68.52,16.63,1.66,18.03,1.9,7.18,1.18,13.94,2.21,20.08,3.07l1.54.3c.43.09.87.17,1.42.25.15.02,3.53.49,8.48.98-11.01,79.69-23.29,210.16,2.71,273.25l.32.71c24.26,51.16,65.19,62.44,95.73,62.73,74.7,2.89,92.03-28.18,95.72-43.25-12.51,1.21-22.37-.76-28.81-2.29-3.91-.59-7.79-1.98-11.35-4.54-1.51-.98-2.16-1.68-2.16-1.68-27.65-27.51-43.75-84.67-46.56-165.29-.31-9.5-.45-19.51-.43-29.71.18-36.34,2.79-67.65,4.57-84.98,73.09-10.89,111.1-40.23,127.67-57.34.42-.45.85-.9,1.3-1.35,7.99-7.91,17.22-24.11,20.45-29.99,12.81-10.87,22.44-23.09,28.64-36.33,12.53-26.75,7.41-49.41,5.2-56.59Z"/>
  <path class="cls-4" d="m535.82,109.34h0s0-.02,0-.02c.7-2.3,1.26-4.63,1.68-6.93,2.12-11.69.77-23.34-4.14-34.92l-.49-.97c-11.1-23.59-27.63-31.54-36.5-34.19l-.55-.15c-.35-.1-.7-.19-1.07-.27l-16.2-3.02,8.66,14.01c.04.06,3.47,5.7,5.08,11.68.06.47.16,1.13.41,1.87.13.38.2.77.23.95.06.39.11.78.14,1.2l.03.31c.02.28.02.57.02.68-.15,7.35-7.27,17.49-19.89,28.4-30.25,23.83-82.74,56.22-161.03,75.24-32.6,5.56-66.4,14.58-100.58,26.84l11.34-12.44-14.14-.27c-10.9.11-39.48,2.67-69.61,24.11-13.57,10.72-24.39,24.67-32.15,41.45l-.26.57c-4.52,11.23-5.63,21.63-5.76,29.63l-.08.08.21,8.47s.09,1.5.33,3.34c.4,6.18,1.57,11.71,3.57,16.63,4.67,10.22,11.95,14.1,15.05,15.37l7.07,2.58.57-9.76c.02-.27.44-6.67,2.25-12.59.71-1.52,1.43-2.83,2.19-4.01.43-.67.9-1.3,1.34-1.87l.39-.51c.4-.51.83-1,1.2-1.41.29-.32.58-.63.94-1,.3-.31.61-.62.85-.85,14.31-13.53,40.54-15.52,60.02-14.85,1.15.04,2.27.09,3.48.16,10.04.53,17.33,1.74,18.73,1.98,7.26,1.19,14.07,2.23,19.97,3.04l1.97.39c.29.06.59.11.94.17.16.02,4.06.56,9.79,1.1,1.8.21,3.51.39,5.14.56-11.13,78.22-24.81,213.04,1.29,276.37l.25.55c23.14,48.8,62.34,59.05,91.14,59.05,9.61,0,19.59-1.12,29.56-3.3,26.29-5.09,38.92-13.91,40.29-14.9l17.39-12.73-21.55-.43c-5.2-.1-11.62-3.41-17.94-9.18-28.95-28.64-45.76-87.37-48.64-169.84-.31-9.58-.46-19.66-.43-29.95.2-40.45,3.39-74.72,5.14-90.65,74.45-10,112.56-39.24,128.83-56.04.48-.51.97-1.03,1.49-1.54,7.89-7.8,17.65-25.41,19.9-29.56,12.55-10.46,21.93-22.21,27.89-34.91,13.46-28.73,4.67-52.67,4.29-53.67Z"/>
  <path class="cls-5" d="m528.39,112.93h0c-.31-.81-.82-1.51-1.48-2.04,1.21-3.19,2.12-6.43,2.71-9.66,3.46-19.09-4.61-34.48-11.97-44-1.31-1.77-2.71-3.44-4.11-4.89-.23-.27-1.1-1.24-2.58-2.57-.58-.55-.94-.85-1.18-1-2.57-2.12-5.31-3.83-8.24-5.15,0,0-2.99-1.48-4.78-1.78,0,0,4.3,9.37,5.17,11.84.01.12.08.35.11.47,4.61,14.14-9.71,30.25-22.45,41.27-31,24.42-84.75,57.6-164.66,76.95-49.42,8.39-93.08,23.39-120.71,34.4-.25.05-.5.11-.76.2-2.85,1.02-6.08,1.37-7.77,1.23,3.76-6.06,9.94-12.52,13.82-16.34l8.74-6.88c-1.99-.09-4.8.33-7.34.81-10.18,1.27-27.17,8.68-27.91,9.01-.1.04-.18.09-.27.15-16.74,7.29-30,16.03-40,26.46l.25-.41c-8.72,7.78-13.98,17.89-17.15,26.64-.24.51-.49,1.32-.57,1.59-.02.05-.03.1-.04.15-2.52,7.46-3.52,13.69-3.85,16.23-3.86,22.27,1.29,31.96,5.39,36.04.06.06.11.11.17.17.73.71,1.43,1.25,2.03,1.64l1.03.57c1.99,1.12,3.79,1.73,3.79,1.73-1.11-1.57-1.58-4.56-1.78-6.57-.05-1.92.25-3.84.98-5.7.65-1.34,1.36-2.65,2.1-3.85.03-.03.18-.24.2-.27.09-.14.17-.29.21-.45l.06-.11c.56-.86,1.16-1.68,1.62-2.31,0,0,.13-.14.34-.42l.24-.32c.52-.66,1.07-1.29,1.6-1.89.36-.4.72-.79,1.12-1.2.39-.4.78-.79,1.14-1.14,16.47-15.57,45.2-18,66.43-17.28,1.21.04,2.38.1,3.66.16,11.43.61,19.59,2.07,19.7,2.09,7.34,1.2,14.12,2.24,20.09,3.06l2.57.5s3.82.53,9.6,1.08c5.78.67,10.57,1.09,14.29,1.26-11.62,78.57-26.78,217.71-.6,281.24,20.96,44.19,55.96,53.87,81.62,54.22h1.53c15.36.01,28.94-3.12,37.77-5.82.13-.01.26-.04.38-.09l.71-.25c4.14-1.3,7.07-2.44,8.38-2.97l2.57-.91c3.51-1.27,14.04-7.33,14.04-7.33-1.02,0-4.19-.58-6.4-1.02-7.62-.46-13.78-5.39-15.17-6.37-21.7-21.02-48.35-68.73-52.11-176.67-.32-9.84-.47-20.11-.44-30.55.25-46.76,4.47-85.7,6.01-98.35,76.19-8.72,114.38-37.66,130.4-54.19.79-.8,1.59-1.64,2.36-2.51,1.39-1.51,2.72-3.01,3.86-4.42,1.69-2.01,3.11-3.96,4.18-5.7,5.83-8.09,10.35-15.8,10.39-15.87.37-.63.27-1.43-.24-1.95,12.33-9.94,21.4-21.03,27.1-33.16,11.92-25.38,4.38-45.94,4.05-46.8Z"/>
  <path class="cls-1" d="m523.85,114.65c-3.35,21.49-35.54,36.51-46.56,41.06-1.23.49-2.45.98-3.7,1.45,29.71-16.03,42.62-33.57,47.44-48.88l.12-.04c.12-.48.22-.94.33-1.41,1.71-6,2.19-11.63,1.97-16.67-1.33-24.83-16.61-37.61-16.61-37.61,5.32,16.32-9.33,33.79-24.23,46.66-31.64,24.92-86.01,58.36-166.85,77.92-46.65,7.92-88.93,21.83-120.34,34.33l-.31.05s-10.28,3.66-14.15-.54c-3.87-4.2,9.44-17.59,9.44-17.59-94.73,31.21-72.7,99.92-72.7,99.92,17.52-40.87,80.92-36.4,118.49-29.72,3.04.54,5.91,1.1,8.58,1.64,0,0,13.48,1.86,28.86,2.27-11.97,79.21-27.98,220.62-1.84,284.03,38.49,81.16,125.75,42.01,125.75,42.01-70.95-44.41-66.02-220.68-57.15-319.54.53-.37,1.04-.76,1.58-1.12l.32.04c114.63-14.83,141.48-66.21,141.5-66.24h0s0,0,0,0h0c-.07.04-29.55,14.25-49.31,13.35l-49.6,13.25c.18-.05,50-14.02,73.6-25.16,13.73-6.48,24.39-13.14,32.7-19.66,38.39-27.32,32.67-73.82,32.67-73.82Z"/>
  <path class="cls-2" d="m117.71,293.32s-8.41-79.03,180.49-67.22l-24.97,43.02s-5.82-.7-51.06-7.01c0,0-84.34-15.2-104.46,31.21Z"/>
  <path class="cls-2" d="m523.85,114.65c-.88,55.32-109.24,93.38-170.89,110.57,65.64-21.83,112.99-62.91,112.99-62.91,103.42-56.43,40.92-109.72,40.92-109.72,10.12,27.99-9.42,48.56-21.96,64.74-72.6,82.5-181.79,110.14-181.79,110.14,0,0-17.78,197.78-5.37,258.36,15.49,119,99.8,107.72,99.8,107.72-88.81-67.21-56.7-312.23-55.59-320.44,84.98-8.82,122.71-42.6,135.93-58.3,4.34-4.82,5.92-8.12,5.92-8.12-56.35,31.34-98.93,26.6-98.93,26.6,170.73-35.14,138.98-118.65,138.98-118.65Z"/>
  <path class="cls-2" d="m342.28,274.99c.23-.02.12-1.93.36-1.96l-39.91-46.35c-2.95,2.95-.39,1.57-.39,1.57,0,0-16.99,196.99-4.58,257.58,15.49,119,99.79,107.72,99.79,107.72-88.81-67.21-56.37-310.36-55.27-318.56Z"/>
  <path class="cls-2" d="m506.88,52.6s9.16,29.26-14.06,54.05c0,0-35.42,50.38-115.71,86.58,0,0-47.62,29.52-83.43,28.73-35.81-.79-85.79-4.33-134.6,16.53,0,0-47.71,19.92-41.37,54.82,0,0-1.13-32.39,42.94-50.5,0,0,56.67-23.22,135.78-14.96,0,.03-23.48,264.35,14.56,322.32,41.32,62.97,86.55,43.37,86.55,43.37-63.33,3.07-86.36-56.95-86.36-56.95-3.73-7.08-6.62-17.43-8.87-29.6-8.29-50.88-6.59-138.11-3.76-201.63l4.84-77.35c7.5-.46,21-2.87,40.25-12.37,0,0,86.58-35.02,136.17-88.55,0,0,46.44-38.96,27.05-74.52Z"/>
</svg>