<svg xmlns="http://www.w3.org/2000/svg" viewBox="0 0 640 640"><defs><style>.cls-1{fill:#e26a10}</style></defs><g id="圖層_2" data-name="圖層 2"><g id="圖層_1-2" data-name="圖層 1"><path class="cls-1" d="M230.47 99.07h86.9c-2.12 4.89-4.27 9.27-5.91 13.82a28.88 28.88 0 0 0-2.1 9.49q-.15 215.38-.09 430.76v6.32c3 .19 5.32.47 7.67.47q101.61 0 203.23-.1c4.07 0 8.24-1.35 12.17-2.67 4.3-1.44 8.37-3.58 13.19-5.7a51.82 51.82 0 0 1 .58 5.23c0 17.49-.11 35 .11 52.46.06 4.62-1.44 5.86-6 5.85q-152.15-.18-304.29-.1c-1.59 0-3.18-.17-5.24-.28a18.07 18.07 0 0 1 1.18-3.45c6-9.64 6.49-20.19 6.48-31.23q-.28-225.59 0-451.19c0-8.08-.75-15.68-4.84-22.77a69.34 69.34 0 0 1-3.04-6.91zM93.77 25h89.06c-2.55 5.7-5 10.71-7 15.92a27.52 27.52 0 0 0-2.09 9.5q-.16 184.65-.12 369.3c0 11.93 6.27 20.41 15.42 26.45 6.3 4.15 13.8 6.7 21 9.11 3.87 1.29 5.72 2.43 5.65 6.9-.27 17.29-.1 34.59-.12 51.89 0 1.79-.18 3.58-.3 6-37.82-4.22-72.16-14.54-96.65-45.57-11.07-14-16.25-30.38-16.26-48.2q-.1-184.93.08-369.85c0-8.3-1.06-16-5.14-23.23A87 87 0 0 1 93.77 25z"/><path class="cls-1" d="M365.54 25.06h88.77a15.93 15.93 0 0 1-1 2.89c-6.52 10.81-7.25 22.59-7.23 34.93.24 118.32-.17 236.63.32 354.95.16 39.07-16.86 66.73-50.69 84.82C376.37 513 355.49 518 333.15 519.8c-.15-2.31-.39-4.28-.39-6.24 0-16.74.14-33.49-.12-50.23-.07-4.82 1.27-6.73 6.21-8.23a80.55 80.55 0 0 0 21.82-10c9.37-6.39 14.16-15.68 14.14-27.7q-.26-179.41 0-358.81c0-9.08-1.18-17.47-5.66-25.39-1.3-2.32-2.15-4.93-3.61-8.14z"/><path fill="none" d="M0 0h640v640H0z"/></g></g></svg>